# xmcd
#
# Track frame offsets: 
#        150
#        13956
#        28258
#        41998
#        56519
#        69926
#        82522
#        98151
#        110835
#        125335
#        140355
#        154902
#        169079
#        182767
#        196325
#        208832
#        222548
#        237215
#        253578
#        267844
#        281595
#        293904
#        308238
#        321437
#        334480
#
# Disc length: 4654 seconds
#
# Revision: 0
# Processed by: cddbd v1.5.2PL0 Copyright (c) Steve Scherf et al.
# Submitted via: ExactAudioCopyFreeDBPlugin 1.0
#
DISCID=83122c19
DTITLE=Various Artist - The Definitive Country Blues Collection - Century Of 
DTITLE=The Blues CD2
DYEAR=2014
DGENRE=Blues
TTITLE0=Blind Lemon Jefferson - Matchbox Blues
TTITLE1=Henry Thomas - Ground Hog Blues
TTITLE2=Phil Leadbetter - Gallis Pole
TTITLE3=Oscar Woods - Evil Hearted Woman Blues
TTITLE4=Blind Joe Reynolds - Outside Woman Blues
TTITLE5=Charlie "Papa" Jackson - Maxwell Street Blues
TTITLE6=Henry Thomas - Bulldoze Blues
TTITLE7=B.K. Turner - Black Ace
TTITLE8=Blind Willie Johnson - It's Nobody's Fault But Mine
TTITLE9=King Solomon Hill - The Gone Dead Train
TTITLE10=Lonnie Johnson - Woke Up With The Blues In My Fingers
TTITLE11=Texas Alexander - Penitentiary Moan Blues
TTITLE12=Lightnin' Hopkins - Katie Mae
TTITLE13=Blind Jake - Diddie Wa Diddie
TTITLE14=Fulton Allen - I Want Some Of Your Pie
TTITLE15=Blind Willie McTell - Mama T'Aint Long Fo' Day
TTITLE16=Robert Hicks - Motherless Chile Blues
TTITLE17=Charley Lincoln - Jealous Hearted Blues
TTITLE18=Curley Weaver - No No Blues
TTITLE19=Sylvester Weaver - Guitar Rag
TTITLE20=Brownie McGhee - Big Legged Woman
TTITLE21=Rev. Gary Davis - Twelve Gates To The City
TTITLE22=Pink Anderson - Every Day In The Week Blues
TTITLE23=Floyd Coucil - Runaway Man Blues
TTITLE24=Sleepy John Estes - Divin' Duck Blues
EXTD=
EXTT0=
EXTT1=
EXTT2=
EXTT3=
EXTT4=
EXTT5=
EXTT6=
EXTT7=
EXTT8=
EXTT9=
EXTT10=
EXTT11=
EXTT12=
EXTT13=
EXTT14=
EXTT15=
EXTT16=
EXTT17=
EXTT18=
EXTT19=
EXTT20=
EXTT21=
EXTT22=
EXTT23=
EXTT24=
PLAYORDER=
